<?xml version="1.0" encoding="UTF-8" standalone="no"?>
<!DOCTYPE svg PUBLIC "-//W3C//DTD SVG 1.1//EN"
 "http://www.w3.org/Graphics/SVG/1.1/DTD/svg11.dtd">
<!-- Generated by graphviz version 2.38.0 (20140413.2041)
 -->
<!-- Title: uniformincomingreconvcfg Pages: 1 -->
<svg width="158pt" height="406pt"
 viewBox="0.00 0.00 157.50 406.00" xmlns="http://www.w3.org/2000/svg" xmlns:xlink="http://www.w3.org/1999/xlink">
<g id="graph0" class="graph" transform="scale(1 1) rotate(0) translate(4 402)">
<title>uniformincomingreconvcfg</title>
<polygon fill="white" stroke="none" points="-4,4 -4,-402 153.5,-402 153.5,4 -4,4"/>
<!-- IN -->
<!-- A -->
<g id="node3" class="node"><title>A</title>
<polygon fill="none" stroke="black" points="148.5,-326 82.5,-326 82.5,-290 148.5,-290 148.5,-326"/>
<text text-anchor="middle" x="115.5" y="-304.3" font-family="Times New Roman,serif" font-size="14.00">A: m = 0</text>
</g>
<!-- IN&#45;&gt;A -->
<g id="edge1" class="edge"><title>IN&#45;&gt;A</title>
<path fill="none" stroke="black" d="M115.5,-361.697C115.5,-353.983 115.5,-344.712 115.5,-336.112"/>
<polygon fill="black" stroke="black" points="119,-336.104 115.5,-326.104 112,-336.104 119,-336.104"/>
</g>
<!-- OUT -->
<!-- B -->
<g id="node4" class="node"><title>B</title>
<polygon fill="none" stroke="black" points="135,-254 0,-254 0,-216 135,-216 135,-254"/>
<text text-anchor="middle" x="67.5" y="-238.8" font-family="Times New Roman,serif" font-size="14.00">B: m = cond(B &#45;&gt; D)</text>
<text text-anchor="middle" x="67.5" y="-223.8" font-family="Times New Roman,serif" font-size="14.00">exec &amp;= ~m &#160;&#160;&#160;</text>
</g>
<!-- A&#45;&gt;B -->
<g id="edge2" class="edge"><title>A&#45;&gt;B</title>
<path fill="none" stroke="black" stroke-dasharray="1,5" d="M103.881,-289.813C98.3297,-281.602 91.5621,-271.592 85.3762,-262.442"/>
<polygon fill="black" stroke="black" points="88.1826,-260.344 79.6822,-254.02 82.3835,-264.264 88.1826,-260.344"/>
</g>
<!-- C -->
<g id="node6" class="node"><title>C</title>
<polygon fill="none" stroke="black" points="149.5,-180 95.5,-180 95.5,-144 149.5,-144 149.5,-180"/>
<text text-anchor="middle" x="122.5" y="-158.3" font-family="Times New Roman,serif" font-size="14.00">C</text>
</g>
<!-- A&#45;&gt;C -->
<g id="edge3" class="edge"><title>A&#45;&gt;C</title>
<path fill="none" stroke="black" stroke-dasharray="1,5" d="M127.807,-289.784C134.15,-279.843 141.226,-266.804 144.5,-254 148.684,-237.638 147.801,-232.563 144.5,-216 142.709,-207.011 139.363,-197.638 135.813,-189.318"/>
<polygon fill="black" stroke="black" points="138.956,-187.775 131.631,-180.12 132.584,-190.672 138.956,-187.775"/>
</g>
<!-- D -->
<g id="node5" class="node"><title>D</title>
<polygon fill="none" stroke="black" points="138,-108 51,-108 51,-72 138,-72 138,-108"/>
<text text-anchor="middle" x="94.5" y="-86.3" font-family="Times New Roman,serif" font-size="14.00">D: exec |= m</text>
</g>
<!-- B&#45;&gt;D -->
<g id="edge4" class="edge"><title>B&#45;&gt;D</title>
<path fill="none" stroke="black" d="M70.9196,-215.889C75.5751,-191.232 83.9467,-146.893 89.3602,-118.222"/>
<polygon fill="black" stroke="black" points="92.8601,-118.55 91.2763,-108.074 85.9816,-117.251 92.8601,-118.55"/>
</g>
<!-- B&#45;&gt;C -->
<g id="edge5" class="edge"><title>B&#45;&gt;C</title>
<path fill="none" stroke="black" d="M81.6639,-215.716C88.1946,-207.285 96.0494,-197.145 103.118,-188.02"/>
<polygon fill="black" stroke="black" points="105.971,-190.052 109.328,-180.003 100.437,-185.766 105.971,-190.052"/>
</g>
<!-- D&#45;&gt;OUT -->
<g id="edge7" class="edge"><title>D&#45;&gt;OUT</title>
<path fill="none" stroke="black" d="M94.5,-71.6966C94.5,-63.9827 94.5,-54.7125 94.5,-46.1124"/>
<polygon fill="black" stroke="black" points="98.0001,-46.1043 94.5,-36.1043 91.0001,-46.1044 98.0001,-46.1043"/>
</g>
<!-- C&#45;&gt;D -->
<g id="edge6" class="edge"><title>C&#45;&gt;D</title>
<path fill="none" stroke="black" d="M115.579,-143.697C112.425,-135.813 108.622,-126.304 105.119,-117.546"/>
<polygon fill="black" stroke="black" points="108.305,-116.089 101.342,-108.104 101.806,-118.689 108.305,-116.089"/>
</g>
</g>
</svg>
